<svg aria-hidden="true" style="position: absolute; width: 0; height: 0; overflow: hidden;" version="1.1" xmlns="http://www.w3.org/2000/svg" xmlns:xlink="http://www.w3.org/1999/xlink">
<defs>
<symbol id="github" viewBox="0 0 33 32">
<path d="M16.286-0.001c-9.006 0-16.286 7.334-16.286 16.407 0 7.253 4.665 13.392 11.136 15.565 0.809 0.163 1.105-0.353 1.105-0.787 0-0.38-0.027-1.684-0.027-3.043-4.53 0.978-5.474-1.956-5.474-1.956-0.728-1.901-1.807-2.39-1.807-2.39-1.483-1.005 0.108-1.005 0.108-1.005 1.645 0.109 2.508 1.684 2.508 1.684 1.456 2.499 3.802 1.793 4.745 1.358 0.135-1.059 0.566-1.793 1.025-2.2-3.613-0.38-7.415-1.793-7.415-8.095 0-1.793 0.647-3.26 1.671-4.4-0.162-0.407-0.728-2.092 0.162-4.346 0 0 1.375-0.435 4.476 1.684 1.221-0.343 2.623-0.542 4.071-0.543h0.001c1.375 0 2.777 0.19 4.071 0.543 3.101-2.119 4.476-1.684 4.476-1.684 0.89 2.255 0.323 3.939 0.162 4.346 1.052 1.141 1.672 2.608 1.672 4.4 0 6.302-3.802 7.687-7.442 8.095 0.593 0.516 1.105 1.494 1.105 3.042 0 2.2-0.027 3.966-0.027 4.509 0 0.435 0.297 0.951 1.105 0.788 6.471-2.174 11.136-8.312 11.136-15.565 0.027-9.073-7.28-16.407-16.259-16.407z"></path>
</symbol>
<symbol id="close-menu" viewBox="0 0 32 32">
<path d="M25 9.093l-2.093-2.093-6.907 6.907-6.907-6.907-2.093 2.093 6.907 6.907-6.907 6.907 2.093 2.093 6.907-6.907 6.907 6.907 2.093-2.093-6.907-6.907 6.907-6.907z"></path>
</symbol>
<symbol id="open-menu" viewBox="0 0 47 32">
<path stroke-linejoin="round" stroke-linecap="round" stroke-miterlimit="4" stroke-width="4.3636" d="M1.96 29.154h42.965M1.96 15.615h42.965M1.96 2.077h42.965"></path>
</symbol>
<symbol id="linkedin" viewBox="0 0 32 32">
<path d="M12 12h5.535v2.837h0.079c0.77-1.381 2.655-2.837 5.464-2.837 5.842 0 6.922 3.637 6.922 8.367v9.633h-5.769v-8.54c0-2.037-0.042-4.657-3.001-4.657-3.005 0-3.463 2.218-3.463 4.509v8.688h-5.767v-18z"></path>
<path d="M2 12h6v18h-6v-18z"></path>
<path d="M8 7c0 1.657-1.343 3-3 3s-3-1.343-3-3c0-1.657 1.343-3 3-3s3 1.343 3 3z"></path>
</symbol>
<symbol id="moon" viewBox="0 0 32 32">
<path d="M16 0c-2.213 0-4.28 0.417-6.213 1.251-1.99 0.841-3.689 1.995-5.121 3.417l0.001-0.001c-1.422 1.431-2.575 3.13-3.378 5.015l-0.040 0.105c-0.832 1.933-1.249 4-1.249 6.213s0.417 4.28 1.251 6.213c0.842 1.99 1.995 3.689 3.417 5.121l-0.001-0.001c1.431 1.42 3.131 2.573 5.015 3.374l0.105 0.040c1.933 0.84 4 1.253 6.213 1.253s4.28-0.413 6.213-1.253c1.989-0.841 3.689-1.993 5.121-3.414l-0.001 0.001c1.42-1.431 2.573-3.131 3.374-5.015l0.040-0.105c0.84-1.933 1.253-4 1.253-6.213s-0.413-4.28-1.253-6.213c-0.841-1.989-1.993-3.689-3.414-5.121l0.001 0.001c-1.431-1.422-3.13-2.575-5.015-3.378l-0.105-0.040c-1.933-0.832-4-1.249-6.213-1.249zM11.84 2c1.265 0.734 2.356 1.583 3.318 2.558l0.002 0.002c0.956 0.955 1.794 2.026 2.492 3.192l0.041 0.075c0.707 1.2 1.24 2.48 1.64 3.867 0.373 1.373 0.573 2.813 0.573 4.307s-0.2 2.933-0.573 4.307c-0.407 1.47-0.967 2.754-1.679 3.937l0.039-0.070c-0.739 1.24-1.578 2.312-2.533 3.267l-0 0c-1 1-2.107 1.84-3.32 2.56-1.248-0.741-2.325-1.588-3.278-2.558l-0.002-0.002c-0.966-0.955-1.813-2.027-2.519-3.193l-0.041-0.073c-0.655-1.112-1.198-2.398-1.562-3.758l-0.025-0.109c-0.381-1.28-0.6-2.75-0.6-4.272 0-0.012 0-0.024 0-0.037v0.002c0-1.493 0.187-2.933 0.6-4.307 0.389-1.468 0.932-2.754 1.627-3.94l-0.040 0.074c0.747-1.24 1.594-2.312 2.558-3.265l0.002-0.002c1-1 2.107-1.84 3.28-2.56zM11.813 12.307c-1.027 0-1.893 0.36-2.613 1.080-0.667 0.648-1.081 1.553-1.081 2.555 0 0.021 0 0.041 0.001 0.062l-0-0.003c0 1.027 0.36 1.893 1.080 2.613s1.587 1.080 2.613 1.080 1.893-0.36 2.613-1.080 1.080-1.587 1.080-2.613-0.36-1.893-1.080-2.613c-0.648-0.667-1.553-1.081-2.555-1.081-0.021 0-0.041 0-0.062 0.001l0.003-0z"></path>
</symbol>
<symbol id="sun" viewBox="0 0 32 32">
<path d="M16 26c1.105 0 2 0.895 2 2v2c0 1.105-0.895 2-2 2s-2-0.895-2-2v-2c0-1.105 0.895-2 2-2zM16 6c-1.105 0-2-0.895-2-2v-2c0-1.105 0.895-2 2-2s2 0.895 2 2v2c0 1.105-0.895 2-2 2zM30 14c1.105 0 2 0.895 2 2s-0.895 2-2 2h-2c-1.105 0-2-0.895-2-2s0.895-2 2-2h2zM6 16c0 1.105-0.895 2-2 2h-2c-1.105 0-2-0.895-2-2s0.895-2 2-2h2c1.105 0 2 0.895 2 2zM25.899 23.071l1.414 1.414c0.781 0.781 0.781 2.047 0 2.828s-2.047 0.781-2.828 0l-1.414-1.414c-0.781-0.781-0.781-2.047 0-2.828s2.047-0.781 2.828 0zM6.101 8.929l-1.414-1.414c-0.781-0.781-0.781-2.047 0-2.828s2.047-0.781 2.828 0l1.414 1.414c0.781 0.781 0.781 2.047 0 2.828s-2.047 0.781-2.828 0zM25.899 8.929c-0.781 0.781-2.047 0.781-2.828 0s-0.781-2.047 0-2.828l1.414-1.414c0.781-0.781 2.047-0.781 2.828 0s0.781 2.047 0 2.828l-1.414 1.414zM6.101 23.071c0.781-0.781 2.047-0.781 2.828 0s0.781 2.047 0 2.828l-1.414 1.414c-0.781 0.781-2.047 0.781-2.828 0s-0.781-2.047 0-2.828l1.414-1.414z"></path>
<path d="M16 8c-4.418 0-8 3.582-8 8s3.582 8 8 8c4.418 0 8-3.582 8-8s-3.582-8-8-8zM16 21c-2.761 0-5-2.239-5-5s2.239-5 5-5 5 2.239 5 5-2.239 5-5 5z"></path>
</symbol>
</defs>
</svg>
