<svg aria-hidden="true" style="position: absolute; width: 0; height: 0; overflow: hidden;" version="1.1" xmlns="http://www.w3.org/2000/svg" xmlns:xlink="http://www.w3.org/1999/xlink">
<defs>
<symbol id="close-menu" viewBox="0 0 32 32">
<path d="M25 9.093l-2.093-2.093-6.907 6.907-6.907-6.907-2.093 2.093 6.907 6.907-6.907 6.907 2.093 2.093 6.907-6.907 6.907 6.907 2.093-2.093-6.907-6.907 6.907-6.907z"></path>
</symbol>
<symbol id="open-menu" viewBox="0 0 47 32">
<path stroke-linejoin="round" stroke-linecap="round" stroke-miterlimit="4" stroke-width="4.3636" d="M1.96 29.154h42.965M1.96 15.615h42.965M1.96 2.077h42.965"></path>
</symbol>
<symbol id="moon" viewBox="0 0 32 32">
<path d="M16 0c-2.213 0-4.28 0.417-6.213 1.251-1.99 0.841-3.689 1.995-5.121 3.417l0.001-0.001c-1.422 1.431-2.575 3.13-3.378 5.015l-0.040 0.105c-0.832 1.933-1.249 4-1.249 6.213s0.417 4.28 1.251 6.213c0.842 1.99 1.995 3.689 3.417 5.121l-0.001-0.001c1.431 1.42 3.131 2.573 5.015 3.374l0.105 0.040c1.933 0.84 4 1.253 6.213 1.253s4.28-0.413 6.213-1.253c1.989-0.841 3.689-1.993 5.121-3.414l-0.001 0.001c1.42-1.431 2.573-3.131 3.374-5.015l0.040-0.105c0.84-1.933 1.253-4 1.253-6.213s-0.413-4.28-1.253-6.213c-0.841-1.989-1.993-3.689-3.414-5.121l0.001 0.001c-1.431-1.422-3.13-2.575-5.015-3.378l-0.105-0.040c-1.933-0.832-4-1.249-6.213-1.249zM11.84 2c1.265 0.734 2.356 1.583 3.318 2.558l0.002 0.002c0.956 0.955 1.794 2.026 2.492 3.192l0.041 0.075c0.707 1.2 1.24 2.48 1.64 3.867 0.373 1.373 0.573 2.813 0.573 4.307s-0.2 2.933-0.573 4.307c-0.407 1.47-0.967 2.754-1.679 3.937l0.039-0.070c-0.739 1.24-1.578 2.312-2.533 3.267l-0 0c-1 1-2.107 1.84-3.32 2.56-1.248-0.741-2.325-1.588-3.278-2.558l-0.002-0.002c-0.966-0.955-1.813-2.027-2.519-3.193l-0.041-0.073c-0.655-1.112-1.198-2.398-1.562-3.758l-0.025-0.109c-0.381-1.28-0.6-2.75-0.6-4.272 0-0.012 0-0.024 0-0.037v0.002c0-1.493 0.187-2.933 0.6-4.307 0.389-1.468 0.932-2.754 1.627-3.94l-0.040 0.074c0.747-1.24 1.594-2.312 2.558-3.265l0.002-0.002c1-1 2.107-1.84 3.28-2.56zM11.813 12.307c-1.027 0-1.893 0.36-2.613 1.080-0.667 0.648-1.081 1.553-1.081 2.555 0 0.021 0 0.041 0.001 0.062l-0-0.003c0 1.027 0.36 1.893 1.080 2.613s1.587 1.080 2.613 1.080 1.893-0.36 2.613-1.080 1.080-1.587 1.080-2.613-0.36-1.893-1.080-2.613c-0.648-0.667-1.553-1.081-2.555-1.081-0.021 0-0.041 0-0.062 0.001l0.003-0z"></path>
</symbol>
<symbol id="sun" viewBox="0 0 32 32">
<path d="M16 26c1.105 0 2 0.895 2 2v2c0 1.105-0.895 2-2 2s-2-0.895-2-2v-2c0-1.105 0.895-2 2-2zM16 6c-1.105 0-2-0.895-2-2v-2c0-1.105 0.895-2 2-2s2 0.895 2 2v2c0 1.105-0.895 2-2 2zM30 14c1.105 0 2 0.895 2 2s-0.895 2-2 2h-2c-1.105 0-2-0.895-2-2s0.895-2 2-2h2zM6 16c0 1.105-0.895 2-2 2h-2c-1.105 0-2-0.895-2-2s0.895-2 2-2h2c1.105 0 2 0.895 2 2zM25.899 23.071l1.414 1.414c0.781 0.781 0.781 2.047 0 2.828s-2.047 0.781-2.828 0l-1.414-1.414c-0.781-0.781-0.781-2.047 0-2.828s2.047-0.781 2.828 0zM6.101 8.929l-1.414-1.414c-0.781-0.781-0.781-2.047 0-2.828s2.047-0.781 2.828 0l1.414 1.414c0.781 0.781 0.781 2.047 0 2.828s-2.047 0.781-2.828 0zM25.899 8.929c-0.781 0.781-2.047 0.781-2.828 0s-0.781-2.047 0-2.828l1.414-1.414c0.781-0.781 2.047-0.781 2.828 0s0.781 2.047 0 2.828l-1.414 1.414zM6.101 23.071c0.781-0.781 2.047-0.781 2.828 0s0.781 2.047 0 2.828l-1.414 1.414c-0.781 0.781-2.047 0.781-2.828 0s-0.781-2.047 0-2.828l1.414-1.414z"></path>
<path d="M16 8c-4.418 0-8 3.582-8 8s3.582 8 8 8c4.418 0 8-3.582 8-8s-3.582-8-8-8zM16 21c-2.761 0-5-2.239-5-5s2.239-5 5-5 5 2.239 5 5-2.239 5-5 5z"></path>
</symbol>
<symbol id="youtube" viewBox="0 0 32 32">
<path fill="#d22215" style="fill: var(--color1, #d22215)" d="M32 16c0 8.837-7.163 16-16 16s-16-7.163-16-16c0-8.837 7.163-16 16-16s16 7.163 16 16z"></path>
<path fill="#a81411" style="fill: var(--color2, #a81411)" d="M24.054 10.646c-0.48 0.146-0.98 0.272-1.481 0.398-3.556 0.754-8.296-1.293-10.343 2.047-1.707 2.656-2.246 5.979-4.189 8.354l10.374 10.374c6.904-1.045 12.361-6.502 13.405-13.407l-7.765-7.766z"></path>
<path fill="#fff" style="fill: var(--color3, #fff)" d="M21.353 9.521h-10.706c-2.101 0-3.803 1.703-3.803 3.803v5.352c0 2.101 1.703 3.803 3.803 3.803h10.706c2.101 0 3.803-1.703 3.803-3.803v-5.352c0-2.1-1.703-3.803-3.803-3.803v0zM18.781 16.26l-5.008 2.388c-0.133 0.064-0.288-0.034-0.288-0.181v-4.926c0-0.15 0.158-0.247 0.292-0.179l5.008 2.538c0.149 0.075 0.146 0.289-0.004 0.361v0z"></path>
<path fill="#d1d1d1" style="fill: var(--color4, #d1d1d1)" d="M21.353 9.521h-5.461v4.913l2.893 1.466c0.149 0.075 0.146 0.289-0.004 0.361l-2.889 1.378v4.841h5.461c2.101 0 3.803-1.703 3.803-3.803v-5.352c0-2.1-1.703-3.803-3.803-3.803z"></path>
</symbol>
<symbol id="tiktok" viewBox="0 0 32 32">
<path fill="#ee1d52" style="fill: var(--color1, #ee1d52)" d="M8.451 19.793c0.156-1.294 0.687-2.018 1.687-2.761 1.431-1.006 3.218-0.437 3.218-0.437v-3.375c0.435-0.011 0.869 0.015 1.299 0.077v4.344c0 0-1.787-0.569-3.218 0.437-0.999 0.742-1.531 1.467-1.687 2.761-0.005 0.703 0.127 1.621 0.734 2.415-0.15-0.077-0.303-0.165-0.459-0.263-1.338-0.898-1.581-2.246-1.575-3.198zM22.035 6.979c-0.984-1.079-1.357-2.168-1.491-2.933h1.238c0 0-0.247 2.006 1.552 3.978l0.025 0.027c-0.485-0.305-0.93-0.665-1.325-1.072zM28 10.037v4.256c0 0-1.58-0.062-2.749-0.359-1.633-0.416-2.682-1.054-2.682-1.054s-0.725-0.455-0.784-0.487v8.789c0 0.489-0.134 1.712-0.543 2.731-0.533 1.334-1.357 2.209-1.508 2.388 0 0-1.001 1.183-2.767 1.98-1.592 0.719-2.99 0.701-3.408 0.719 0 0-2.416 0.096-4.59-1.317-0.47-0.311-0.909-0.664-1.311-1.054l0.011 0.008c2.175 1.413 4.59 1.317 4.59 1.317 0.418-0.018 1.816 0 3.408-0.719 1.765-0.797 2.767-1.98 2.767-1.98 0.15-0.179 0.977-1.054 1.508-2.388 0.407-1.019 0.543-2.241 0.543-2.731v-8.788c0.059 0.032 0.783 0.487 0.783 0.487s1.050 0.639 2.683 1.054c1.17 0.297 2.749 0.359 2.749 0.359v-3.335c0.54 0.121 1.001 0.154 1.3 0.124z"></path>
<path fill="#000" style="fill: var(--color2, #000)" d="M26.701 9.913v3.334c0 0-1.58-0.062-2.749-0.359-1.633-0.416-2.683-1.054-2.683-1.054s-0.724-0.455-0.783-0.487v8.79c0 0.489-0.134 1.712-0.543 2.731-0.533 1.334-1.357 2.209-1.508 2.388 0 0-1.002 1.183-2.767 1.98-1.591 0.719-2.989 0.701-3.408 0.719 0 0-2.416 0.096-4.59-1.317l-0.011-0.008c-0.23-0.222-0.446-0.457-0.647-0.703-0.694-0.846-1.119-1.847-1.226-2.132-0-0.001-0-0.002 0-0.004-0.172-0.496-0.533-1.688-0.484-2.842 0.087-2.036 0.804-3.286 0.993-3.599 0.502-0.854 1.154-1.618 1.928-2.258 0.683-0.552 1.457-0.992 2.291-1.3 0.901-0.362 1.866-0.556 2.843-0.572v3.375c0 0-1.787-0.567-3.218 0.437-1 0.743-1.531 1.467-1.687 2.761-0.007 0.952 0.237 2.3 1.574 3.198 0.156 0.099 0.309 0.186 0.459 0.263 0.233 0.303 0.518 0.568 0.841 0.783 1.306 0.826 2.399 0.884 3.798 0.347 0.933-0.359 1.635-1.168 1.96-2.064 0.205-0.559 0.202-1.123 0.202-1.705v-16.569h3.256c0.135 0.765 0.507 1.854 1.491 2.933 0.395 0.407 0.84 0.767 1.325 1.072 0.143 0.148 0.876 0.881 1.816 1.331 0.486 0.233 0.999 0.411 1.527 0.531z"></path>
<path fill="#69c9d0" style="fill: var(--color3, #69c9d0)" d="M4.489 22.757v0.003l0.081 0.219c-0.009-0.026-0.039-0.103-0.081-0.222z"></path>
<path fill="#69c9d0" style="fill: var(--color3, #69c9d0)" d="M10.513 13.792c-0.834 0.309-1.608 0.748-2.291 1.3-0.774 0.641-1.426 1.407-1.927 2.262-0.189 0.312-0.906 1.563-0.993 3.599-0.049 1.154 0.312 2.346 0.484 2.842-0 0.001-0 0.002 0 0.004 0.109 0.283 0.532 1.284 1.226 2.132 0.202 0.246 0.418 0.481 0.647 0.703-0.736-0.488-1.392-1.077-1.947-1.75-0.688-0.839-1.112-1.829-1.223-2.121-0-0.002-0-0.004 0-0.006v-0.004c-0.173-0.496-0.535-1.688-0.485-2.843 0.087-2.036 0.804-3.286 0.993-3.599 0.501-0.855 1.153-1.621 1.927-2.262 0.683-0.553 1.457-0.992 2.291-1.3 0.52-0.207 1.062-0.359 1.616-0.455 0.835-0.14 1.688-0.152 2.527-0.036v0.962c-0.978 0.015-1.944 0.21-2.846 0.572z"></path>
<path fill="#69c9d0" style="fill: var(--color3, #69c9d0)" d="M20.544 4.046h-3.256v16.57c0 0.582 0 1.144-0.202 1.705-0.329 0.896-1.028 1.704-1.96 2.063-1.399 0.539-2.493 0.479-3.798-0.347-0.324-0.214-0.609-0.477-0.843-0.78 1.112 0.568 2.107 0.558 3.34 0.084 0.932-0.359 1.632-1.168 1.96-2.064 0.205-0.56 0.202-1.123 0.202-1.705v-16.573h4.495c0 0-0.050 0.412 0.062 1.046zM26.7 8.991v0.922c-0.528-0.12-1.039-0.299-1.525-0.531-0.94-0.45-1.673-1.183-1.816-1.331 0.166 0.105 0.339 0.2 0.517 0.285 1.143 0.547 2.269 0.71 2.824 0.655z"></path>
</symbol>
</defs>
</svg>
